<svg xmlns="http://www.w3.org/2000/svg" version="1.1" xmlns:xlink="http://www.w3.org/1999/xlink" xmlns:svgjs="http://svgjs.dev/svgjs" width="1600" height="700" preserveAspectRatio="none" viewBox="0 0 1600 700"><g mask="url(&quot;#SvgjsMask2248&quot;)" fill="none"><g transform="translate(0, 0)" stroke-linecap="round" stroke="url(&quot;#SvgjsLinearGradient2249&quot;)"><path d="M393 294.38 L393 405.62" stroke-width="8.25"></path><path d="M404 331.03 L404 368.97" stroke-width="8.25"></path><path d="M415 313.98 L415 386.02" stroke-width="8.25"></path><path d="M426 299.9 L426 400.1" stroke-width="8.25"></path><path d="M437 256.97 L437 443.03" stroke-width="8.25"></path><path d="M448 261.76 L448 438.24" stroke-width="8.25"></path><path d="M459 264 L459 436" stroke-width="8.25"></path><path d="M470 203.54 L470 496.46" stroke-width="8.25"></path><path d="M481 288.79 L481 411.21" stroke-width="8.25"></path><path d="M492 294.51 L492 405.49" stroke-width="8.25"></path><path d="M503 181.81 L503 518.19" stroke-width="8.25"></path><path d="M514 294.56 L514 405.44" stroke-width="8.25"></path><path d="M525 290.24 L525 409.76" stroke-width="8.25"></path><path d="M536 331.01 L536 368.99" stroke-width="8.25"></path><path d="M547 187.18 L547 512.82" stroke-width="8.25"></path><path d="M558 240.79 L558 459.21" stroke-width="8.25"></path><path d="M569 329.6 L569 370.4" stroke-width="8.25"></path><path d="M580 271.01 L580 428.99" stroke-width="8.25"></path><path d="M591 287.61 L591 412.39" stroke-width="8.25"></path><path d="M602 291.89 L602 408.11" stroke-width="8.25"></path><path d="M613 309.69 L613 390.31" stroke-width="8.25"></path><path d="M624 313.51 L624 386.49" stroke-width="8.25"></path><path d="M635 259.8 L635 440.2" stroke-width="8.25"></path><path d="M646 288.67 L646 411.33" stroke-width="8.25"></path><path d="M657 201.19 L657 498.81" stroke-width="8.25"></path><path d="M668 274.28 L668 425.72" stroke-width="8.25"></path><path d="M679 245.94 L679 454.06" stroke-width="8.25"></path><path d="M690 184.29 L690 515.71" stroke-width="8.25"></path><path d="M701 289.22 L701 410.78" stroke-width="8.25"></path><path d="M712 306.49 L712 393.51" stroke-width="8.25"></path><path d="M723 317.39 L723 382.61" stroke-width="8.25"></path><path d="M734 237.02 L734 462.98" stroke-width="8.25"></path><path d="M745 287.92 L745 412.08" stroke-width="8.25"></path><path d="M756 269.99 L756 430.01" stroke-width="8.25"></path><path d="M767 210.13 L767 489.88" stroke-width="8.25"></path><path d="M778 199.77 L778 500.23" stroke-width="8.25"></path><path d="M789 182.85 L789 517.15" stroke-width="8.25"></path><path d="M800 277.68 L800 422.32" stroke-width="8.25"></path><path d="M811 194.67 L811 505.33" stroke-width="8.25"></path><path d="M822 259.06 L822 440.94" stroke-width="8.25"></path><path d="M833 309.19 L833 390.81" stroke-width="8.25"></path><path d="M844 261.28 L844 438.72" stroke-width="8.25"></path><path d="M855 174.94 L855 525.06" stroke-width="8.25"></path><path d="M866 175 L866 525" stroke-width="8.25"></path><path d="M877 271.56 L877 428.44" stroke-width="8.25"></path><path d="M888 285.38 L888 414.62" stroke-width="8.25"></path><path d="M899 190.65 L899 509.36" stroke-width="8.25"></path><path d="M910 194.57 L910 505.43" stroke-width="8.25"></path><path d="M921 268.08 L921 431.92" stroke-width="8.25"></path><path d="M932 229.61 L932 470.39" stroke-width="8.25"></path><path d="M943 255.88 L943 444.12" stroke-width="8.25"></path><path d="M954 193.22 L954 506.77" stroke-width="8.25"></path><path d="M965 328.9 L965 371.1" stroke-width="8.25"></path><path d="M976 238.85 L976 461.15" stroke-width="8.25"></path><path d="M987 240 L987 460" stroke-width="8.25"></path><path d="M998 212.5 L998 487.5" stroke-width="8.25"></path><path d="M1009 285.1 L1009 414.9" stroke-width="8.25"></path><path d="M1020 194.07 L1020 505.93" stroke-width="8.25"></path><path d="M1031 313.64 L1031 386.36" stroke-width="8.25"></path><path d="M1042 268.82 L1042 431.18" stroke-width="8.25"></path><path d="M1053 203.87 L1053 496.13" stroke-width="8.25"></path><path d="M1064 239.23 L1064 460.77" stroke-width="8.25"></path><path d="M1075 231.13 L1075 468.88" stroke-width="8.25"></path><path d="M1086 200.9 L1086 499.1" stroke-width="8.25"></path><path d="M1097 308.81 L1097 391.19" stroke-width="8.25"></path><path d="M1108 218.84 L1108 481.16" stroke-width="8.25"></path><path d="M1119 300.02 L1119 399.98" stroke-width="8.25"></path><path d="M1130 316.47 L1130 383.53" stroke-width="8.25"></path><path d="M1141 323.5 L1141 376.5" stroke-width="8.25"></path><path d="M1152 303.72 L1152 396.28" stroke-width="8.25"></path><path d="M1163 244.72 L1163 455.28" stroke-width="8.25"></path><path d="M1174 226.81 L1174 473.19" stroke-width="8.25"></path><path d="M1185 250.99 L1185 449.01" stroke-width="8.25"></path><path d="M1196 293.27 L1196 406.73" stroke-width="8.25"></path><path d="M1207 288.75 L1207 411.25" stroke-width="8.25"></path></g></g><defs><mask id="SvgjsMask2248"><rect width="1600" height="700" fill="#ffffff"></rect></mask><linearGradient x1="1216" y1="350" x2="384" y2="350" gradientUnits="userSpaceOnUse" id="SvgjsLinearGradient2249"><stop stop-color="rgba(23, 193, 143, 1)" offset="0.18"></stop><stop stop-color="rgba(0, 0, 0, 1)" offset="0.93"></stop></linearGradient></defs></svg>